<svg xmlns="http://www.w3.org/2000/svg" width="32" height="32" fill="none" viewBox="0 0 32 32">
  <rect width="31.6" height="32" x=".4" fill="#FAD141" rx="15.8"/>
  <path fill="#F6F8FC" d="M11.63 12.714a.342.342 0 0 0 .246.112.34.34 0 0 0 .244-.112l.91-.91a.335.335 0 0 0 .114-.252.354.354 0 0 0-.113-.255l-.91-.91a.344.344 0 0 0-.245-.113.344.344 0 0 0-.246.113l-.91.91a.336.336 0 0 0-.112.25c0 .095.037.181.112.257l.91.91Zm-1.83 4.82c-.399 0-.731-.134-.998-.401a1.356 1.356 0 0 1-.402-1V9.4c0-.399.134-.732.402-.999.267-.267.6-.401.998-.401h12.8c.399 0 .732.134.999.401s.401.6.401 1v6.733c0 .398-.134.731-.4.999a1.36 1.36 0 0 1-1 .4h-2.662a3.557 3.557 0 0 0 .057-.867H22.6a.511.511 0 0 0 .367-.166.51.51 0 0 0 .166-.366V9.4a.509.509 0 0 0-.166-.366.51.51 0 0 0-.367-.167H9.8a.51.51 0 0 0-.367.167.51.51 0 0 0-.166.366v6.734c0 .132.056.255.166.366a.512.512 0 0 0 .367.166h2.605c-.006.145-.005.29.004.434.008.144.026.289.053.433H9.8ZM20.098 11.9c.24 0 .445-.084.615-.251a.833.833 0 0 0 .254-.613.843.843 0 0 0-.252-.615.831.831 0 0 0-.613-.254.842.842 0 0 0-.615.252.831.831 0 0 0-.253.612c0 .24.083.446.252.615.168.17.372.254.612.254ZM11.701 24a.677.677 0 0 1-.5-.201.68.68 0 0 1-.2-.5v-.52c0-.341.093-.659.28-.952.187-.293.44-.508.758-.647a10.58 10.58 0 0 1 2.034-.681 9.725 9.725 0 0 1 2.127-.232c.725 0 1.434.077 2.127.232a10.6 10.6 0 0 1 2.035.68c.318.14.57.355.757.648.188.293.281.611.281.954v.52a.679.679 0 0 1-.201.498.677.677 0 0 1-.5.201h-8.998Zm.166-.867h8.666v-.353a.813.813 0 0 0-.151-.477.947.947 0 0 0-.39-.325 9.76 9.76 0 0 0-1.864-.628 8.677 8.677 0 0 0-3.856 0 9.76 9.76 0 0 0-1.863.628.946.946 0 0 0-.39.325.813.813 0 0 0-.152.477v.353Zm4.333-4.067c-.604 0-1.116-.21-1.536-.629-.42-.42-.63-.933-.63-1.537 0-.605.21-1.117.63-1.537.42-.42.932-.63 1.536-.63.605 0 1.117.21 1.537.63.42.42.63.932.63 1.537a2.09 2.09 0 0 1-.63 1.537c-.42.42-.932.63-1.537.63Zm0-.866c.361 0 .668-.127.921-.38.254-.252.38-.559.38-.92s-.127-.668-.38-.92a1.257 1.257 0 0 0-.92-.38c-.362 0-.669.126-.921.38-.253.252-.38.56-.38.92s.127.668.38.92c.253.254.56.38.92.38Z"/>
</svg>
